<svg width="81" height="18" viewBox="0 0 81 18" fill="none" xmlns="http://www.w3.org/2000/svg">
<path d="M2.048 4.22L6.62 15.434L11.174 4.22H12.488L7.196 17H6.044L0.734 4.22H2.048ZM22.9048 15.884V17H14.3188V4.22H22.7428V5.336H15.5788V9.944H21.8248V11.006H15.5788V15.884H22.9048ZM16.9108 2.24V0.547999H17.9548V2.24H16.9108ZM19.5928 2.24V0.547999H20.6368V2.24H19.5928ZM25.2875 17V4.22H30.6875C31.2395 4.22 31.7435 4.334 32.1995 4.562C32.6555 4.79 33.0515 5.102 33.3875 5.498C33.7355 5.882 33.9995 6.314 34.1795 6.794C34.3715 7.262 34.4675 7.742 34.4675 8.234C34.4675 8.846 34.3475 9.422 34.1075 9.962C33.8795 10.502 33.5495 10.958 33.1175 11.33C32.6975 11.702 32.1995 11.948 31.6235 12.068L34.7555 17H33.3335L30.3275 12.284H26.5475V17H25.2875ZM26.5475 11.168H30.7235C31.2275 11.168 31.6655 11.03 32.0375 10.754C32.4095 10.478 32.6975 10.118 32.9015 9.674C33.1055 9.218 33.2075 8.738 33.2075 8.234C33.2075 7.718 33.0875 7.244 32.8475 6.812C32.6195 6.368 32.3075 6.014 31.9115 5.75C31.5275 5.474 31.0955 5.336 30.6155 5.336H26.5475V11.168ZM44.5173 6.614C44.3373 6.41 44.1273 6.23 43.8873 6.074C43.6473 5.906 43.3773 5.762 43.0773 5.642C42.7773 5.522 42.4533 5.426 42.1053 5.354C41.7693 5.282 41.4093 5.246 41.0253 5.246C39.9093 5.246 39.0873 5.462 38.5593 5.894C38.0433 6.314 37.7853 6.89 37.7853 7.622C37.7853 8.126 37.9053 8.522 38.1453 8.81C38.3973 9.098 38.7873 9.332 39.3153 9.512C39.8433 9.692 40.5153 9.878 41.3313 10.07C42.2433 10.262 43.0293 10.49 43.6893 10.754C44.3493 11.018 44.8593 11.378 45.2193 11.834C45.5793 12.278 45.7593 12.884 45.7593 13.652C45.7593 14.24 45.6453 14.75 45.4173 15.182C45.1893 15.614 44.8713 15.974 44.4633 16.262C44.0553 16.55 43.5693 16.766 43.0053 16.91C42.4413 17.042 41.8233 17.108 41.1513 17.108C40.4913 17.108 39.8553 17.042 39.2433 16.91C38.6433 16.766 38.0733 16.562 37.5333 16.298C36.9933 16.022 36.4893 15.674 36.0213 15.254L36.6513 14.228C36.8793 14.468 37.1493 14.696 37.4613 14.912C37.7853 15.116 38.1393 15.302 38.5233 15.47C38.9193 15.638 39.3393 15.77 39.7833 15.866C40.2393 15.95 40.7073 15.992 41.1873 15.992C42.2073 15.992 42.9993 15.806 43.5633 15.434C44.1393 15.062 44.4273 14.51 44.4273 13.778C44.4273 13.25 44.2833 12.83 43.9953 12.518C43.7073 12.194 43.2753 11.93 42.6993 11.726C42.1233 11.522 41.4153 11.324 40.5753 11.132C39.6873 10.928 38.9373 10.7 38.3253 10.448C37.7133 10.196 37.2513 9.866 36.9393 9.458C36.6393 9.038 36.4893 8.486 36.4893 7.802C36.4893 7.01 36.6813 6.344 37.0653 5.804C37.4613 5.252 38.0013 4.838 38.6853 4.562C39.3693 4.274 40.1553 4.13 41.0433 4.13C41.6073 4.13 42.1293 4.19 42.6093 4.31C43.1013 4.418 43.5513 4.58 43.9593 4.796C44.3793 5.012 44.7693 5.282 45.1293 5.606L44.5173 6.614ZM57.0353 5.336H52.4813V17H51.2213V5.336H46.6673V4.22H57.0353V5.336ZM58.9497 17V4.238H60.2097V11.654L67.2477 4.22H68.6337L63.4137 9.836L68.9037 17H67.4817L62.6037 10.592L60.2097 13.076V17H58.9497ZM74.4761 4.22H75.5381L80.8481 17H79.5161L77.8601 13.004H72.1181L70.4801 17H69.1301L74.4761 4.22ZM77.5721 12.014L74.9981 5.696L72.3881 12.014H77.5721Z" fill="#B3B3B3"/>
</svg>
